<?xml version="1.0" encoding="utf-8"?>
<!-- Generator: Adobe Illustrator 22.0.1, SVG Export Plug-In . SVG Version: 6.00 Build 0)  -->
<svg version="1.1" id="Capa_1" xmlns="http://www.w3.org/2000/svg" xmlns:xlink="http://www.w3.org/1999/xlink" x="0px" y="0px"
	 viewBox="0 0 54 54" style="enable-background:new 0 0 54 54;" xml:space="preserve">
<style type="text/css">
	.st0{fill:#4FBA6F;}
	.st1{fill:#FFFFFF;}
</style>
<g>
	<g>
		<path class="st0" d="M27,1L27,1c14.4,0,26,11.6,26,26l0,0c0,14.4-11.6,26-26,26l0,0C12.6,53,1,41.4,1,27l0,0C1,12.6,12.6,1,27,1z"
			/>
		<path class="st0" d="M27,0c14.9,0,27,12.1,27,27S41.9,54,27,54S0,41.9,0,27C0,12.1,12.1,0,27,0z M27,52c13.8,0,25-11.2,25-25
			S40.8,2,27,2S2,13.2,2,27S13.2,52,27,52z"/>
	</g>
	<path class="st1" d="M31.7,14c0.3,0,0.5,0.1,0.7,0.3c0.4,0.4,0.4,1,0,1.4L21.1,27l11.3,11.3c0.4,0.4,0.4,1,0,1.4
		c-0.4,0.4-1,0.4-1.4,0L19.5,28.2c-0.7-0.7-0.7-1.8,0-2.4L31,14.3C31.2,14.1,31.5,14,31.7,14z"/>
</g>
</svg>
