<?xml version="1.0" standalone="no"?>
<!DOCTYPE svg PUBLIC "-//W3C//DTD SVG 20010904//EN"
 "http://www.w3.org/TR/2001/REC-SVG-20010904/DTD/svg10.dtd">
<svg version="1.0" xmlns="http://www.w3.org/2000/svg"
 width="512.000000pt" height="512.000000pt" viewBox="0 0 512.000000 512.000000"
 preserveAspectRatio="xMidYMid meet">
<metadata>
Created by potrace 1.11, written by Peter Selinger 2001-2013
</metadata>
<g transform="translate(0.000000,512.000000) scale(0.100000,-0.100000)"
fill="#000000" stroke="none">
<path d="M560 5110 c-63 -8 -131 -41 -183 -89 -26 -24 -54 -41 -68 -41 -77 0
-193 -66 -242 -137 -80 -116 -85 -268 -12 -382 49 -78 156 -146 241 -154 30
-2 53 -13 84 -40 74 -63 123 -81 225 -81 79 -1 97 3 146 27 141 69 221 236
183 382 -10 40 -10 60 0 100 48 188 -81 383 -274 412 -30 5 -75 6 -100 3z"/>
<path d="M2098 5096 c-26 -7 -71 -28 -100 -46 -50 -31 -59 -33 -148 -34 -80
-1 -104 -5 -150 -27 -120 -57 -194 -169 -195 -294 0 -38 3 -83 8 -100 7 -28 4
-33 -41 -66 -40 -30 -53 -34 -73 -26 -40 15 -151 2 -210 -25 -63 -29 -132 -94
-160 -152 -25 -51 -29 -65 -36 -143 -5 -53 -10 -65 -32 -80 -48 -31 -106 -106
-118 -153 -8 -30 -13 -34 -48 -37 -116 -9 -224 -84 -277 -190 -30 -61 -33 -76
-33 -153 0 -73 4 -93 27 -137 l27 -52 -34 -68 c-76 -154 -72 -199 63 -733 61
-239 142 -559 181 -710 83 -328 221 -874 226 -898 2 -9 18 -71 35 -137 17 -66
33 -127 35 -135 2 -8 20 -80 40 -160 20 -80 38 -152 40 -160 16 -69 87 -339
93 -355 9 -20 19 -20 1350 -20 l1341 0 96 385 c111 445 104 415 109 438 2 9
106 427 231 927 335 1341 323 1290 319 1358 -4 77 -23 149 -52 202 l-28 50 30
60 c27 53 31 70 31 145 0 71 -4 94 -26 141 -52 111 -165 192 -279 202 -31 2
-37 8 -61 57 -51 105 -154 181 -268 197 -52 8 -54 9 -71 53 -10 25 -34 64 -55
88 -38 44 -127 102 -156 102 -11 0 -25 21 -40 58 -34 84 -127 171 -210 196
-11 3 -20 24 -27 63 -16 88 -38 131 -100 193 -95 95 -222 125 -345 81 l-53
-18 -34 33 c-114 113 -310 119 -442 14 -42 -35 -51 -36 -69 -14 -58 70 -205
108 -311 80z"/>
<path d="M4730 4940 c-62 -10 -128 -43 -181 -90 -24 -22 -55 -40 -69 -40 -65
-3 -152 -44 -203 -96 -201 -202 -82 -545 200 -578 30 -3 83 -33 83 -46 0 -4
28 -22 63 -41 58 -32 68 -34 157 -34 84 1 101 4 147 28 82 42 150 120 174 198
16 50 19 159 5 199 -9 27 -9 45 0 75 6 22 10 70 9 107 -3 121 -75 230 -189
288 -36 18 -55 23 -131 34 -11 2 -40 0 -65 -4z"/>
</g>
</svg>
